<svg width="42" height="43" viewBox="0 0 42 43" fill="none" xmlns="http://www.w3.org/2000/svg">
<path d="M40.9087 39.1898L35.9087 36.3031V42.0766L40.9087 39.1898ZM2.88672 39.1898H2.38672V39.6898H2.88672V39.1898ZM2.88672 1.5036L-3.26633e-05 6.5036H5.77347L2.88672 1.5036ZM36.4087 39.1898V38.6898H2.88672V39.1898V39.6898H36.4087V39.1898ZM2.88672 39.1898H3.38672V6.0036H2.88672H2.38672V39.1898H2.88672Z" fill="black"/>
<path d="M40.9083 34.7414V1H7.16699" stroke="black" stroke-width="2" stroke-linecap="round" stroke-dasharray="5 5"/>
<path d="M7.75488 14.1776L15.1411 6.79144M7.75488 21.0602L22.0236 6.79144M7.75488 28.0267L28.9901 6.79144M7.75488 34.9092L35.8727 6.79144M15.1411 34.9092L35.8727 14.1776M22.0236 34.9092L35.8727 21.0602M29.6616 34.9092L35.8727 28.6981" stroke="black" stroke-width="2" stroke-linecap="round"/>
</svg>
