<svg width="31" height="23" viewBox="0 0 31 23" fill="none" xmlns="http://www.w3.org/2000/svg">
<path d="M8.80078 0.757812H21.4941C24.1499 0.757812 26.1696 1.3571 27.5039 2.36719C28.8114 3.357 29.5292 4.79025 29.5225 6.65137V16.251C29.5225 18.1129 28.8002 19.5467 27.4902 20.5371C26.1538 21.5474 24.1348 22.1474 21.4795 22.1475H8.80078C6.14533 22.1475 4.12633 21.5476 2.79004 20.5361C1.48023 19.5446 0.757812 18.1076 0.757812 16.2393V6.6543C0.757812 4.79254 1.47935 3.35858 2.78906 2.36816C4.12551 1.35774 6.1452 0.757812 8.80078 0.757812ZM15.1475 6.25195C13.3771 6.25199 11.7441 6.79467 10.5371 7.70703C9.32992 8.61973 8.51279 9.93701 8.5127 11.4521C8.5127 12.9674 9.32984 14.2845 10.5371 15.1973C11.7441 16.1097 13.3769 16.6533 15.1475 16.6533C16.9182 16.6533 18.5517 16.1099 19.7588 15.1973C20.966 14.2845 21.7822 12.9673 21.7822 11.4521C21.7821 9.93701 20.966 8.61973 19.7588 7.70703C18.5517 6.79445 16.9181 6.25195 15.1475 6.25195ZM23.0898 3.2793C22.4291 3.18188 21.7059 3.34591 21.1895 3.73633L21.1738 3.74805L21.1592 3.76074C20.9843 3.90761 20.8024 4.09218 20.665 4.35254H20.6641C20.5404 4.57687 20.4493 4.85092 20.4492 5.15332C20.4492 5.45565 20.5405 5.72977 20.6641 5.9541C20.7905 6.18346 20.961 6.38037 21.1592 6.54688L21.1738 6.55957L21.1895 6.57129C21.6297 6.90399 22.1764 7.05664 22.7217 7.05664C23.0046 7.05661 23.2782 7.00722 23.5244 6.92969C23.7738 6.85113 24.0077 6.73902 24.2227 6.59277L24.2549 6.57129L24.2842 6.54688C24.4824 6.38037 24.6519 6.18346 24.7783 5.9541C24.9019 5.72973 24.9932 5.45575 24.9932 5.15332C24.9931 4.86057 24.9067 4.59521 24.7891 4.375H24.79C24.7885 4.37201 24.7867 4.36918 24.7852 4.36621C24.7828 4.3618 24.7807 4.35691 24.7783 4.35254H24.7764C24.6391 4.09257 24.4588 3.90748 24.2842 3.76074L24.2393 3.72266L24.1885 3.69238C24.1612 3.67589 24.1547 3.66966 24.0928 3.62988C24.0529 3.60424 23.9871 3.56494 23.9092 3.52734L23.9102 3.52637C23.904 3.52329 23.8977 3.5206 23.8916 3.51758C23.8887 3.51623 23.8857 3.515 23.8828 3.51367H23.8818C23.7541 3.45149 23.6203 3.40024 23.4814 3.36523C23.3587 3.32487 23.2316 3.29355 23.0908 3.27832L23.0898 3.2793Z" stroke="white" stroke-width="1.51476"/>
</svg>
