<svg width="32" height="25" viewBox="0 0 32 25" fill="none" xmlns="http://www.w3.org/2000/svg">
<path d="M18.9231 9.11091V12.4305H22.8595C23.1623 12.4305 23.3137 12.6594 23.3137 12.8883L22.7081 15.0632C22.7081 15.1777 22.4053 15.2921 22.2539 15.2921H18.9231V23.6482H14.3811V15.4066H11.8073C11.5045 15.4066 11.3531 15.2921 11.3531 15.0632V12.8883C11.3531 12.6594 11.5045 12.5449 11.8073 12.5449H14.3811V8.76751C14.3811 6.82157 16.3493 5.3335 18.9231 5.3335H23.0109C23.3137 5.3335 23.4651 5.44796 23.4651 5.6769V8.42411C23.4651 8.65304 23.3137 8.76751 23.0109 8.76751H19.3773C19.0745 8.76751 18.9231 8.88198 18.9231 9.11091Z" stroke="white" stroke-width="1.51" stroke-miterlimit="10" stroke-linecap="round"/>
<path d="M20.4371 23.6483H11.3531C3.78301 23.6483 0.754997 21.359 0.754997 15.6356V8.76758C0.754997 3.04423 3.78301 0.754883 11.3531 0.754883H20.4371C28.0071 0.754883 31.0352 3.04423 31.0352 8.76758V15.6356C31.0352 21.359 28.0071 23.6483 20.4371 23.6483Z" stroke="white" stroke-width="1.51" stroke-linecap="round" stroke-linejoin="round"/>
</svg>
