<svg width="46" height="31" viewBox="0 0 46 31" fill="none" xmlns="http://www.w3.org/2000/svg">
<path d="M42 29V30.5H45V29H43.5H42ZM42 9.5L40.6976 10.2442L42 9.5ZM22.5 7.00006L22.2091 5.52854L21 5.76758V7.00006H22.5ZM21 22.8224C21 23.6508 21.6716 24.3224 22.5 24.3224C23.3284 24.3224 24 23.6508 24 22.8224H22.5H21ZM3 1.5V0H0V1.5H1.5H3ZM0 29V30.5H3V29H1.5H0ZM43.5 23.5L44.9995 23.5398L45 23.5199V23.5H43.5ZM42 9.5L43.3024 8.75579C42.1858 6.80186 40.0736 5.78583 37.9451 5.24645C35.7777 4.69722 33.2905 4.56351 30.9966 4.60909C28.688 4.65496 26.4962 4.88467 24.888 5.10111C24.0818 5.20961 23.4175 5.31542 22.9525 5.39453C22.7199 5.43411 22.5369 5.46705 22.4107 5.49037C22.3475 5.50203 22.2986 5.51129 22.2647 5.51777C22.2477 5.52102 22.2346 5.52357 22.2253 5.52538C22.2206 5.52628 22.2169 5.527 22.2142 5.52753C22.2129 5.5278 22.2118 5.52802 22.2109 5.52818C22.2105 5.52827 22.21 5.52836 22.2098 5.5284C22.2094 5.52848 22.2091 5.52854 22.5 7.00006C22.7909 8.47158 22.7907 8.47162 22.7906 8.47165C22.7906 8.47165 22.7905 8.47166 22.7906 8.47165C22.7907 8.47162 22.7911 8.47155 22.7917 8.47143C22.7929 8.47119 22.7951 8.47076 22.7983 8.47014C22.8046 8.46891 22.8148 8.46694 22.8287 8.46428C22.8564 8.45897 22.899 8.4509 22.9556 8.44045C23.0689 8.41953 23.2379 8.38908 23.4557 8.35203C23.8914 8.2779 24.521 8.17754 25.2881 8.07431C26.8263 7.86731 28.8978 7.65138 31.0562 7.60849C33.2295 7.56531 35.4133 7.6997 37.2081 8.15453C39.0418 8.61919 40.1827 9.34316 40.6976 10.2442L42 9.5ZM22.5 7.00006H21V22.8224H22.5H24V7.00006H22.5ZM1.5 1.5H0V22.8224H1.5H3V1.5H1.5ZM1.5 22.8224H0V29H1.5H3V22.8224H1.5ZM43.5 29H45C45 26.9081 44.9457 25.5665 44.9995 23.5398L43.5 23.5L42.0005 23.4602C41.9456 25.5306 42 27.0333 42 29H43.5ZM43.5 23.5H45C45 20.3569 45.1255 17.5924 44.9977 15.2918C44.8661 12.9226 44.4634 10.7876 43.3024 8.75579L42 9.5L40.6976 10.2442C41.5366 11.7124 41.8839 13.3274 42.0023 15.4582C42.1245 17.6576 42 20.1431 42 23.5H43.5ZM1.5 22.8224L1.4758 24.3222L43.4758 24.9998L43.5 23.5L43.5242 22.0002L1.5242 21.3226L1.5 22.8224Z" fill="black"/>
<circle cx="12" cy="12.5" r="4.5" stroke="black" stroke-width="4"/>
</svg>
