<svg width="21" height="16" viewBox="0 0 21 16" fill="none" xmlns="http://www.w3.org/2000/svg">
<path d="M20.6297 7.7986C20.6297 3.50157 15.9984 0 10.3149 0C4.63138 0 0 3.50157 0 7.7986C0 10.0602 1.28936 12.0956 3.3317 13.5228C3.3317 13.5306 3.3317 13.5306 3.32139 13.5384C3.42454 13.6164 3.54832 13.6787 3.65146 13.7489C3.71335 13.7879 3.76493 13.8269 3.82682 13.8581C4.01249 13.9751 4.21878 14.0843 4.41477 14.1935C4.48697 14.2324 4.54886 14.2636 4.62106 14.3026C4.81705 14.404 5.02334 14.4976 5.23996 14.5834C5.31216 14.6146 5.39468 14.6536 5.46688 14.6848C5.67318 14.7705 5.88979 14.8485 6.11672 14.9187C6.19924 14.9499 6.28176 14.9811 6.36428 15.0045C6.5912 15.0747 6.81813 15.1371 7.04506 15.1917C7.12758 15.2151 7.2101 15.2385 7.29261 15.2541C7.54017 15.3087 7.78773 15.3554 8.03529 15.4022C8.10749 15.4178 8.17969 15.4334 8.26221 15.4412C8.55103 15.488 8.83985 15.5192 9.13898 15.5426C9.18024 15.5426 9.2215 15.5504 9.26275 15.5582C9.61346 15.5816 9.96417 15.5972 10.3149 15.5972C10.6656 15.5972 11.0163 15.5816 11.3567 15.5582C11.3979 15.5582 11.4392 15.5504 11.4805 15.5426C11.7796 15.5192 12.0684 15.488 12.3572 15.4412C12.4294 15.4334 12.5016 15.41 12.5841 15.4022C12.8317 15.3554 13.0896 15.3165 13.3268 15.2541C13.4093 15.2307 13.4919 15.2073 13.5744 15.1917C13.8013 15.1293 14.0385 15.0747 14.2552 15.0045C14.3377 14.9811 14.4202 14.9499 14.5027 14.9187C14.7193 14.8485 14.9359 14.7705 15.1525 14.6848C15.2351 14.6536 15.3073 14.6146 15.3795 14.5834C15.5858 14.4898 15.7921 14.404 15.9984 14.3026C16.0706 14.2714 16.1325 14.2324 16.2047 14.1935C16.411 14.0843 16.6069 13.9751 16.7926 13.8581C16.8545 13.8191 16.9061 13.7801 16.968 13.7489C17.0814 13.6787 17.1949 13.6086 17.298 13.5384C17.298 13.5306 17.298 13.5306 17.2877 13.5228C19.3404 12.0956 20.6297 10.0602 20.6297 7.7986ZM15.4104 11.6745C12.6151 10.2552 8.03529 10.2552 5.21933 11.6745C4.76547 11.9007 4.39414 12.1658 4.08469 12.4544C2.51683 11.2534 1.54723 9.60788 1.54723 7.7986C1.54723 4.14106 5.4772 1.16979 10.3149 1.16979C15.1525 1.16979 19.0825 4.14106 19.0825 7.7986C19.0825 9.60788 18.1129 11.2534 16.5451 12.4544C16.2459 12.1658 15.8643 11.9007 15.4104 11.6745Z" fill="white"/>
<path d="M10.3149 3.84447C8.17968 3.84447 6.44678 5.15463 6.44678 6.76895C6.44678 8.35207 8.08684 9.63883 10.2633 9.68563H10.3561H10.4283H10.4489C12.5326 9.63104 14.1726 8.35207 14.1829 6.76895C14.1829 5.15463 12.45 3.84447 10.3149 3.84447Z" fill="white"/>
</svg>
